<?xml version="1.0" encoding="UTF-8" standalone="no"?>
<svg
   sodipodi:docname="jb_logo_transparent.svg"
   inkscape:version="1.2.1 (9c6d41e410, 2022-07-14)"
   id="svg8"
   version="1.1"
   viewBox="0 0 100 100"
   height="100mm"
   width="100mm"
   inkscape:export-filename="jb_logo_transparent_500x500.png"
   inkscape:export-xdpi="127"
   inkscape:export-ydpi="127"
   xmlns:inkscape="http://www.inkscape.org/namespaces/inkscape"
   xmlns:sodipodi="http://sodipodi.sourceforge.net/DTD/sodipodi-0.dtd"
   xmlns="http://www.w3.org/2000/svg"
   xmlns:svg="http://www.w3.org/2000/svg"
   xmlns:rdf="http://www.w3.org/1999/02/22-rdf-syntax-ns#"
   xmlns:cc="http://creativecommons.org/ns#"
   xmlns:dc="http://purl.org/dc/elements/1.1/">
  <defs
     id="defs2" />
  <sodipodi:namedview
     inkscape:window-maximized="1"
     inkscape:window-y="-8"
     inkscape:window-x="-8"
     inkscape:window-height="1017"
     inkscape:window-width="1920"
     showgrid="false"
     inkscape:document-rotation="0"
     inkscape:current-layer="layer5"
     inkscape:document-units="mm"
     inkscape:cy="151.71746"
     inkscape:cx="101.01596"
     inkscape:zoom="1.2918751"
     inkscape:pageshadow="2"
     inkscape:pageopacity="0.0"
     borderopacity="1.0"
     bordercolor="#666666"
     pagecolor="#ffffff"
     id="base"
     inkscape:showpageshadow="2"
     inkscape:pagecheckerboard="true"
     inkscape:deskcolor="#d1d1d1" />
  <metadata
     id="metadata5">
    <rdf:RDF>
      <cc:Work
         rdf:about="">
        <dc:format>image/svg+xml</dc:format>
        <dc:type
           rdf:resource="http://purl.org/dc/dcmitype/StillImage" />
      </cc:Work>
    </rdf:RDF>
  </metadata>
  <g
     inkscape:groupmode="layer"
     id="layer5"
     inkscape:label="Background"
     style="display:inline">
    <path
       id="path5364"
       style="fill:#ffffff;stroke-width:2"
       d="M 50.000049 0 A 50 50 0 0 0 46.263326 0.14004313 A 50 50 0 0 0 42.547791 0.55862223 A 50 50 0 0 0 38.874113 1.2536702 A 50 50 0 0 0 35.262447 2.2215698 A 50 50 0 0 0 31.732947 3.4561198 A 50 50 0 0 0 28.305766 4.9516357 A 50 50 0 0 0 25.000024 6.6988159 A 50 50 0 0 0 21.833809 8.6878418 A 50 50 0 0 0 18.825724 10.908378 A 50 50 0 0 0 15.991272 13.347506 A 50 50 0 0 0 13.347506 15.991272 A 50 50 0 0 0 10.908378 18.825724 A 50 50 0 0 0 8.6878418 21.833809 A 50 50 0 0 0 6.6988159 25.000024 A 50 50 0 0 0 4.9516357 28.305766 A 50 50 0 0 0 3.4561198 31.732947 A 50 50 0 0 0 2.2215698 35.262447 A 50 50 0 0 0 1.2536702 38.874113 A 50 50 0 0 0 0.55862223 42.547791 A 50 50 0 0 0 0.14004313 46.263326 A 50 50 0 0 0 0 50.000049 A 50 50 0 0 0 0.14004313 53.736255 A 50 50 0 0 0 0.55862223 57.452307 A 50 50 0 0 0 1.2536702 61.125985 A 50 50 0 0 0 2.2215698 64.737651 A 50 50 0 0 0 3.4561198 68.267151 A 50 50 0 0 0 4.9516357 71.694332 A 50 50 0 0 0 6.6988159 75.000073 A 50 50 0 0 0 8.6878418 78.165771 A 50 50 0 0 0 10.908378 81.174373 A 50 50 0 0 0 13.347506 84.008826 A 50 50 0 0 0 15.991272 86.652592 A 50 50 0 0 0 18.825724 89.09172 A 50 50 0 0 0 21.833809 91.311739 A 50 50 0 0 0 25.000024 93.301282 A 50 50 0 0 0 28.305766 95.048462 A 50 50 0 0 0 31.732947 96.543461 A 50 50 0 0 0 35.262447 97.778528 A 50 50 0 0 0 38.874113 98.746427 A 50 50 0 0 0 42.547791 99.441475 A 50 50 0 0 0 46.263326 99.860055 A 50 50 0 0 0 50.000049 100.0001 A 50 50 0 0 0 53.736255 99.860055 A 50 50 0 0 0 57.452307 99.441475 A 50 50 0 0 0 61.125985 98.746427 A 50 50 0 0 0 64.737651 97.778528 A 50 50 0 0 0 68.267151 96.543461 A 50 50 0 0 0 71.694332 95.048462 A 50 50 0 0 0 75.000073 93.301282 A 50 50 0 0 0 78.165771 91.311739 A 50 50 0 0 0 81.174373 89.09172 A 50 50 0 0 0 84.008826 86.652592 A 50 50 0 0 0 86.652592 84.008826 A 50 50 0 0 0 89.09172 81.174373 A 50 50 0 0 0 91.311739 78.165771 A 50 50 0 0 0 93.301282 75.000073 A 50 50 0 0 0 95.048462 71.694332 A 50 50 0 0 0 96.543461 68.267151 A 50 50 0 0 0 97.778528 64.737651 A 50 50 0 0 0 98.746427 61.125985 A 50 50 0 0 0 99.441475 57.452307 A 50 50 0 0 0 99.860055 53.736255 A 50 50 0 0 0 100.0001 50.000049 A 50 50 0 0 0 99.983561 48.712789 A 50 50 0 0 0 99.933952 47.426046 A 50 50 0 0 0 99.850753 46.14137 A 50 50 0 0 0 99.734998 44.858761 A 50 50 0 0 0 99.586169 43.580286 A 50 50 0 0 0 99.404268 42.305428 A 50 50 0 0 0 99.189811 41.035738 A 50 50 0 0 0 98.942798 39.772249 A 50 50 0 0 0 98.663228 38.515479 A 50 50 0 0 0 98.351619 37.266459 A 50 50 0 0 0 98.007454 36.025708 A 50 50 0 0 0 97.631767 34.794259 A 50 50 0 0 0 97.224556 33.572628 A 50 50 0 0 0 96.785824 32.362366 A 50 50 0 0 0 96.316085 31.163472 A 50 50 0 0 0 95.815857 29.977498 A 50 50 0 0 0 95.28514 28.804443 A 50 50 0 0 0 94.724451 27.645341 A 50 50 0 0 0 94.133789 26.501225 A 50 50 0 0 0 93.514189 25.372611 A 50 50 0 0 0 92.865649 24.260535 A 50 50 0 0 0 92.188688 23.164994 A 50 50 0 0 0 91.483822 22.088057 A 50 50 0 0 0 90.751567 21.028691 A 50 50 0 0 0 89.991923 19.989478 A 50 50 0 0 0 89.205924 18.969385 A 50 50 0 0 0 88.394088 17.970479 A 50 50 0 0 0 87.556413 16.992244 A 50 50 0 0 0 86.69445 16.03623 A 50 50 0 0 0 85.807682 15.102954 A 50 50 0 0 0 84.897144 14.192415 A 50 50 0 0 0 83.963867 13.305648 A 50 50 0 0 0 83.007853 12.443168 A 50 50 0 0 0 82.029618 11.60601 A 50 50 0 0 0 81.030713 10.794173 A 50 50 0 0 0 80.01062 10.008175 A 50 50 0 0 0 78.97089 9.2485311 A 50 50 0 0 0 77.91204 8.516276 A 50 50 0 0 0 76.834587 7.8114095 A 50 50 0 0 0 75.739563 7.1344482 A 50 50 0 0 0 74.627486 6.485909 A 50 50 0 0 0 73.498873 5.8663086 A 50 50 0 0 0 72.354757 5.275647 A 50 50 0 0 0 71.195654 4.7149577 A 50 50 0 0 0 70.022599 4.1842407 A 50 50 0 0 0 68.836625 3.6840129 A 50 50 0 0 0 67.637732 3.2142741 A 50 50 0 0 0 66.426953 2.7755412 A 50 50 0 0 0 65.205839 2.3683309 A 50 50 0 0 0 63.97439 1.9926432 A 50 50 0 0 0 62.733639 1.6484782 A 50 50 0 0 0 61.484619 1.3368693 A 50 50 0 0 0 60.227848 1.0572998 A 50 50 0 0 0 58.963843 0.81028646 A 50 50 0 0 0 57.69467 0.59582926 A 50 50 0 0 0 56.419812 0.41392822 A 50 50 0 0 0 55.14082 0.2651001 A 50 50 0 0 0 53.858728 0.14934489 A 50 50 0 0 0 52.574052 0.066145833 A 50 50 0 0 0 51.287309 0.016536458 A 50 50 0 0 0 50.000049 0 z M 37.500037 12.500012 L 50.000049 12.500012 L 50.000049 75.000073 C 49.999983 81.903524 44.403498 87.500016 37.500037 87.500085 L 37.500037 12.500012 z M 56.250313 37.500553 C 63.153768 37.500623 68.750259 43.096604 68.750326 50.000049 L 68.750326 62.500061 C 68.750259 69.403505 63.153768 75.000004 56.250313 75.000073 L 56.250313 37.500553 z " />
  </g>
  <g
     inkscape:groupmode="layer"
     id="layer4"
     inkscape:label="JB"
     style="display:inline" />
</svg>
